G75*
G70*
%OFA0B0*%
%FSLAX24Y24*%
%IPPOS*%
%LPD*%
%AMOC8*
5,1,8,0,0,1.08239X$1,22.5*
%
%ADD10R,0.0592X0.0356*%
%ADD11R,0.0671X0.0592*%
%ADD12R,0.0375X0.0198*%
%ADD13R,0.0297X0.0237*%
%ADD14R,0.0297X0.0297*%
%ADD15R,0.0592X0.0671*%
%ADD16R,0.0552X0.0552*%
%ADD17C,0.0138*%
%ADD18C,0.0384*%
%ADD19C,0.0024*%
%ADD20C,0.0068*%
%ADD21C,0.0356*%
%ADD22R,0.1261X0.2442*%
%ADD23C,0.0867*%
D10*
X012248Y002548D03*
X012248Y003048D03*
X012248Y003548D03*
X012248Y004048D03*
X014414Y004048D03*
X014414Y003548D03*
X014414Y003048D03*
X014414Y002548D03*
D11*
X017081Y003338D03*
X017956Y003338D03*
X018831Y003213D03*
X018831Y003882D03*
X017956Y004007D03*
X017081Y004007D03*
X009706Y003797D03*
X008581Y003757D03*
X008581Y003088D03*
X009706Y003049D03*
X025206Y003549D03*
X025206Y004297D03*
D12*
X021733Y003557D03*
X021733Y003301D03*
X021733Y003045D03*
X021733Y002789D03*
X019429Y002789D03*
X019429Y003045D03*
X019429Y003301D03*
X019429Y003557D03*
D13*
X023378Y003549D03*
X023378Y003923D03*
X023378Y004297D03*
D14*
X024284Y004297D03*
X024284Y003923D03*
X024284Y003549D03*
D15*
X024496Y002860D03*
X025166Y002860D03*
X011416Y003548D03*
X010746Y003548D03*
D16*
X015293Y003548D03*
X016119Y003548D03*
X016119Y002923D03*
X015293Y002923D03*
D17*
X007927Y004074D02*
X007335Y004074D01*
X007927Y004074D02*
X007927Y003522D01*
X007335Y003522D01*
X007335Y004074D01*
X007335Y003659D02*
X007927Y003659D01*
X007927Y003796D02*
X007335Y003796D01*
X007335Y003933D02*
X007927Y003933D01*
X007927Y004070D02*
X007335Y004070D01*
X005327Y004074D02*
X004735Y004074D01*
X005327Y004074D02*
X005327Y003522D01*
X004735Y003522D01*
X004735Y004074D01*
X004735Y003659D02*
X005327Y003659D01*
X005327Y003796D02*
X004735Y003796D01*
X004735Y003933D02*
X005327Y003933D01*
X005327Y004070D02*
X004735Y004070D01*
D18*
X005203Y002786D02*
X005499Y002786D01*
X005499Y002690D01*
X005203Y002690D01*
X005203Y002786D01*
X007163Y002786D02*
X007459Y002786D01*
X007459Y002690D01*
X007163Y002690D01*
X007163Y002786D01*
D19*
X006959Y003031D02*
X006743Y003031D01*
X006959Y003031D02*
X006959Y002445D01*
X006743Y002445D01*
X006743Y003031D01*
X006743Y002468D02*
X006959Y002468D01*
X006959Y002491D02*
X006743Y002491D01*
X006743Y002514D02*
X006959Y002514D01*
X006959Y002537D02*
X006743Y002537D01*
X006743Y002560D02*
X006959Y002560D01*
X006959Y002583D02*
X006743Y002583D01*
X006743Y002606D02*
X006959Y002606D01*
X006959Y002629D02*
X006743Y002629D01*
X006743Y002652D02*
X006959Y002652D01*
X006959Y002675D02*
X006743Y002675D01*
X006743Y002698D02*
X006959Y002698D01*
X006959Y002721D02*
X006743Y002721D01*
X006743Y002744D02*
X006959Y002744D01*
X006959Y002767D02*
X006743Y002767D01*
X006743Y002790D02*
X006959Y002790D01*
X006959Y002813D02*
X006743Y002813D01*
X006743Y002836D02*
X006959Y002836D01*
X006959Y002859D02*
X006743Y002859D01*
X006743Y002882D02*
X006959Y002882D01*
X006959Y002905D02*
X006743Y002905D01*
X006743Y002928D02*
X006959Y002928D01*
X006959Y002951D02*
X006743Y002951D01*
X006743Y002974D02*
X006959Y002974D01*
X006959Y002997D02*
X006743Y002997D01*
X006743Y003020D02*
X006959Y003020D01*
X006699Y003031D02*
X006483Y003031D01*
X006699Y003031D02*
X006699Y002445D01*
X006483Y002445D01*
X006483Y003031D01*
X006483Y002468D02*
X006699Y002468D01*
X006699Y002491D02*
X006483Y002491D01*
X006483Y002514D02*
X006699Y002514D01*
X006699Y002537D02*
X006483Y002537D01*
X006483Y002560D02*
X006699Y002560D01*
X006699Y002583D02*
X006483Y002583D01*
X006483Y002606D02*
X006699Y002606D01*
X006699Y002629D02*
X006483Y002629D01*
X006483Y002652D02*
X006699Y002652D01*
X006699Y002675D02*
X006483Y002675D01*
X006483Y002698D02*
X006699Y002698D01*
X006699Y002721D02*
X006483Y002721D01*
X006483Y002744D02*
X006699Y002744D01*
X006699Y002767D02*
X006483Y002767D01*
X006483Y002790D02*
X006699Y002790D01*
X006699Y002813D02*
X006483Y002813D01*
X006483Y002836D02*
X006699Y002836D01*
X006699Y002859D02*
X006483Y002859D01*
X006483Y002882D02*
X006699Y002882D01*
X006699Y002905D02*
X006483Y002905D01*
X006483Y002928D02*
X006699Y002928D01*
X006699Y002951D02*
X006483Y002951D01*
X006483Y002974D02*
X006699Y002974D01*
X006699Y002997D02*
X006483Y002997D01*
X006483Y003020D02*
X006699Y003020D01*
X006439Y003031D02*
X006223Y003031D01*
X006439Y003031D02*
X006439Y002445D01*
X006223Y002445D01*
X006223Y003031D01*
X006223Y002468D02*
X006439Y002468D01*
X006439Y002491D02*
X006223Y002491D01*
X006223Y002514D02*
X006439Y002514D01*
X006439Y002537D02*
X006223Y002537D01*
X006223Y002560D02*
X006439Y002560D01*
X006439Y002583D02*
X006223Y002583D01*
X006223Y002606D02*
X006439Y002606D01*
X006439Y002629D02*
X006223Y002629D01*
X006223Y002652D02*
X006439Y002652D01*
X006439Y002675D02*
X006223Y002675D01*
X006223Y002698D02*
X006439Y002698D01*
X006439Y002721D02*
X006223Y002721D01*
X006223Y002744D02*
X006439Y002744D01*
X006439Y002767D02*
X006223Y002767D01*
X006223Y002790D02*
X006439Y002790D01*
X006439Y002813D02*
X006223Y002813D01*
X006223Y002836D02*
X006439Y002836D01*
X006439Y002859D02*
X006223Y002859D01*
X006223Y002882D02*
X006439Y002882D01*
X006439Y002905D02*
X006223Y002905D01*
X006223Y002928D02*
X006439Y002928D01*
X006439Y002951D02*
X006223Y002951D01*
X006223Y002974D02*
X006439Y002974D01*
X006439Y002997D02*
X006223Y002997D01*
X006223Y003020D02*
X006439Y003020D01*
X006179Y003031D02*
X005963Y003031D01*
X006179Y003031D02*
X006179Y002445D01*
X005963Y002445D01*
X005963Y003031D01*
X005963Y002468D02*
X006179Y002468D01*
X006179Y002491D02*
X005963Y002491D01*
X005963Y002514D02*
X006179Y002514D01*
X006179Y002537D02*
X005963Y002537D01*
X005963Y002560D02*
X006179Y002560D01*
X006179Y002583D02*
X005963Y002583D01*
X005963Y002606D02*
X006179Y002606D01*
X006179Y002629D02*
X005963Y002629D01*
X005963Y002652D02*
X006179Y002652D01*
X006179Y002675D02*
X005963Y002675D01*
X005963Y002698D02*
X006179Y002698D01*
X006179Y002721D02*
X005963Y002721D01*
X005963Y002744D02*
X006179Y002744D01*
X006179Y002767D02*
X005963Y002767D01*
X005963Y002790D02*
X006179Y002790D01*
X006179Y002813D02*
X005963Y002813D01*
X005963Y002836D02*
X006179Y002836D01*
X006179Y002859D02*
X005963Y002859D01*
X005963Y002882D02*
X006179Y002882D01*
X006179Y002905D02*
X005963Y002905D01*
X005963Y002928D02*
X006179Y002928D01*
X006179Y002951D02*
X005963Y002951D01*
X005963Y002974D02*
X006179Y002974D01*
X006179Y002997D02*
X005963Y002997D01*
X005963Y003020D02*
X006179Y003020D01*
X005919Y003031D02*
X005703Y003031D01*
X005919Y003031D02*
X005919Y002445D01*
X005703Y002445D01*
X005703Y003031D01*
X005703Y002468D02*
X005919Y002468D01*
X005919Y002491D02*
X005703Y002491D01*
X005703Y002514D02*
X005919Y002514D01*
X005919Y002537D02*
X005703Y002537D01*
X005703Y002560D02*
X005919Y002560D01*
X005919Y002583D02*
X005703Y002583D01*
X005703Y002606D02*
X005919Y002606D01*
X005919Y002629D02*
X005703Y002629D01*
X005703Y002652D02*
X005919Y002652D01*
X005919Y002675D02*
X005703Y002675D01*
X005703Y002698D02*
X005919Y002698D01*
X005919Y002721D02*
X005703Y002721D01*
X005703Y002744D02*
X005919Y002744D01*
X005919Y002767D02*
X005703Y002767D01*
X005703Y002790D02*
X005919Y002790D01*
X005919Y002813D02*
X005703Y002813D01*
X005703Y002836D02*
X005919Y002836D01*
X005919Y002859D02*
X005703Y002859D01*
X005703Y002882D02*
X005919Y002882D01*
X005919Y002905D02*
X005703Y002905D01*
X005703Y002928D02*
X005919Y002928D01*
X005919Y002951D02*
X005703Y002951D01*
X005703Y002974D02*
X005919Y002974D01*
X005919Y002997D02*
X005703Y002997D01*
X005703Y003020D02*
X005919Y003020D01*
D20*
X005625Y004104D02*
X006237Y004104D01*
X006237Y003492D01*
X005625Y003492D01*
X005625Y004104D01*
X005625Y003559D02*
X006237Y003559D01*
X006237Y003626D02*
X005625Y003626D01*
X005625Y003693D02*
X006237Y003693D01*
X006237Y003760D02*
X005625Y003760D01*
X005625Y003827D02*
X006237Y003827D01*
X006237Y003894D02*
X005625Y003894D01*
X005625Y003961D02*
X006237Y003961D01*
X006237Y004028D02*
X005625Y004028D01*
X005625Y004095D02*
X006237Y004095D01*
X006425Y004104D02*
X007037Y004104D01*
X007037Y003492D01*
X006425Y003492D01*
X006425Y004104D01*
X006425Y003559D02*
X007037Y003559D01*
X007037Y003626D02*
X006425Y003626D01*
X006425Y003693D02*
X007037Y003693D01*
X007037Y003760D02*
X006425Y003760D01*
X006425Y003827D02*
X007037Y003827D01*
X007037Y003894D02*
X006425Y003894D01*
X006425Y003961D02*
X007037Y003961D01*
X007037Y004028D02*
X006425Y004028D01*
X006425Y004095D02*
X007037Y004095D01*
D21*
X005301Y002738D03*
X005401Y002738D03*
X007261Y002738D03*
X007361Y002738D03*
X007711Y003698D03*
X007711Y003898D03*
X004951Y003898D03*
X004951Y003698D03*
D22*
X003956Y003423D03*
X026331Y003423D03*
D23*
X022456Y002923D03*
M02*
