G75*
G70*
%OFA0B0*%
%FSLAX24Y24*%
%IPPOS*%
%LPD*%
%AMOC8*
5,1,8,0,0,1.08239X$1,22.5*
%
%ADD10C,0.0051*%
%ADD11C,0.0110*%
%ADD12C,0.0050*%
%ADD13C,0.0176*%
%ADD14C,0.0040*%
%ADD15C,0.0060*%
%ADD16R,0.0551X0.0256*%
%ADD17C,0.0080*%
%ADD18C,0.0256*%
%ADD19R,0.0394X0.0098*%
%ADD20C,0.0079*%
%ADD21R,0.0236X0.0197*%
%ADD22R,0.0571X0.0295*%
%ADD23R,0.0256X0.0551*%
%ADD24R,0.0118X0.0059*%
%ADD25R,0.0118X0.0118*%
%ADD26R,0.0236X0.0531*%
%ADD27C,0.0020*%
%ADD28C,0.0100*%
%ADD29C,0.0030*%
%ADD30C,0.0000*%
D10*
X002331Y000126D02*
X002331Y002173D01*
X002433Y001149D01*
X002457Y001149D02*
X002331Y002173D01*
X002229Y001149D01*
X002205Y001149D02*
X002457Y001149D01*
X002382Y001149D02*
X002331Y002173D01*
X002280Y001149D01*
X002205Y001149D02*
X002331Y002173D01*
X002706Y002173D02*
X001544Y002173D01*
X001544Y004923D02*
X002956Y004923D01*
X002331Y004923D02*
X002433Y005946D01*
X002457Y005946D02*
X002331Y004923D01*
X002229Y005946D01*
X002205Y005946D02*
X002457Y005946D01*
X002382Y005946D02*
X002331Y004923D01*
X002280Y005946D01*
X002205Y005946D02*
X002331Y004923D01*
X002331Y009784D01*
X004831Y007585D02*
X004831Y006423D01*
X004831Y006798D02*
X005855Y006695D01*
X005855Y006672D02*
X004831Y006798D01*
X005855Y006900D01*
X005855Y006924D02*
X005855Y006672D01*
X005855Y006747D02*
X004831Y006798D01*
X005855Y006849D01*
X005855Y006924D02*
X004831Y006798D01*
X028706Y006798D01*
X027682Y006695D01*
X027682Y006672D02*
X028706Y006798D01*
X027682Y006900D01*
X027682Y006924D02*
X027682Y006672D01*
X027682Y006747D02*
X028706Y006798D01*
X027682Y006849D01*
X027682Y006924D02*
X028706Y006798D01*
X028706Y006923D02*
X028706Y006010D01*
D11*
X019643Y007881D02*
X018797Y007881D01*
X019432Y008516D01*
X019432Y007247D01*
X018375Y007458D02*
X018375Y007670D01*
X018163Y007881D01*
X017529Y007881D01*
X017529Y007458D01*
X017740Y007247D01*
X018163Y007247D01*
X018375Y007458D01*
X017952Y008304D02*
X017529Y007881D01*
X017952Y008304D02*
X018375Y008516D01*
X016471Y008304D02*
X015625Y007458D01*
X015837Y007247D01*
X016260Y007247D01*
X016471Y007458D01*
X016471Y008304D01*
X016260Y008516D01*
X015837Y008516D01*
X015625Y008304D01*
X015625Y007458D01*
X015203Y007458D02*
X015203Y007670D01*
X014991Y007881D01*
X014357Y007881D01*
X014357Y007458D01*
X014568Y007247D01*
X014991Y007247D01*
X015203Y007458D01*
X014780Y008304D02*
X014357Y007881D01*
X014780Y008304D02*
X015203Y008516D01*
X016894Y007458D02*
X017106Y007458D01*
X017106Y007247D01*
X016894Y007247D01*
X016894Y007458D01*
X001882Y007482D02*
X001882Y007270D01*
X001671Y007270D01*
X001671Y007482D01*
X001882Y007482D01*
X001671Y007905D02*
X001882Y008116D01*
X001882Y008539D01*
X001671Y008751D01*
X000825Y008751D01*
X000613Y008539D01*
X000613Y008116D01*
X000825Y007905D01*
X001036Y007905D01*
X001248Y008116D01*
X001248Y008751D01*
X001036Y009173D02*
X000825Y009173D01*
X000613Y009385D01*
X000613Y009808D01*
X000825Y010019D01*
X001671Y010019D01*
X001882Y009808D01*
X001882Y009385D01*
X001671Y009173D01*
X001248Y009385D02*
X001248Y010019D01*
X001248Y009385D02*
X001036Y009173D01*
X000613Y006847D02*
X000825Y006424D01*
X001248Y006001D01*
X001248Y006636D01*
X001459Y006847D01*
X001671Y006847D01*
X001882Y006636D01*
X001882Y006213D01*
X001671Y006001D01*
X001248Y006001D01*
D12*
X014129Y004289D02*
X014129Y002557D01*
X015783Y002557D01*
X015783Y004289D01*
X014129Y004289D01*
D13*
X014326Y004092D03*
D14*
X014476Y004443D02*
X014706Y004443D01*
X014783Y004520D01*
X014783Y004826D01*
X014706Y004903D01*
X014476Y004903D01*
X014476Y004443D01*
X014936Y004443D02*
X014936Y004750D01*
X015090Y004903D01*
X015243Y004750D01*
X015243Y004443D01*
X015397Y004443D02*
X015704Y004443D01*
X015550Y004443D02*
X015550Y004903D01*
X015397Y004750D01*
X015243Y004673D02*
X014936Y004673D01*
X013193Y004323D02*
X012886Y004323D01*
X013117Y004553D01*
X013117Y004093D01*
X012733Y004093D02*
X012579Y004246D01*
X012656Y004246D02*
X012426Y004246D01*
X012656Y004246D02*
X012733Y004323D01*
X012733Y004476D01*
X012656Y004553D01*
X012426Y004553D01*
X012426Y004093D01*
X011591Y003698D02*
X011591Y003408D01*
X011071Y003398D02*
X011071Y003698D01*
X010415Y002803D02*
X010415Y002343D01*
X010568Y002343D02*
X010261Y002343D01*
X010108Y002343D02*
X009954Y002496D01*
X010031Y002496D02*
X009801Y002496D01*
X010031Y002496D02*
X010108Y002573D01*
X010108Y002726D01*
X010031Y002803D01*
X009801Y002803D01*
X009801Y002343D01*
X010261Y002650D02*
X010415Y002803D01*
X010976Y002701D02*
X010976Y002395D01*
X011053Y002318D01*
X011206Y002318D01*
X011283Y002395D01*
X011436Y002318D02*
X011743Y002318D01*
X011590Y002318D02*
X011590Y002778D01*
X011436Y002625D01*
X011283Y002701D02*
X011206Y002778D01*
X011053Y002778D01*
X010976Y002701D01*
X015924Y002576D02*
X015924Y002270D01*
X016001Y002193D01*
X016154Y002193D01*
X016231Y002270D01*
X016231Y002423D01*
X016077Y002423D01*
X015924Y002576D02*
X016001Y002653D01*
X016154Y002653D01*
X016231Y002576D01*
X016384Y002653D02*
X016615Y002653D01*
X016691Y002576D01*
X016691Y002423D01*
X016615Y002346D01*
X016384Y002346D01*
X016384Y002193D02*
X016384Y002653D01*
X016845Y002653D02*
X016845Y002193D01*
X017152Y002193D01*
X017305Y002193D02*
X017612Y002193D01*
X017766Y002193D02*
X017766Y002653D01*
X018073Y002193D01*
X018073Y002653D01*
X018301Y002593D02*
X018301Y003053D01*
X018531Y003053D01*
X018608Y002976D01*
X018608Y002823D01*
X018531Y002746D01*
X018301Y002746D01*
X018454Y002746D02*
X018608Y002593D01*
X018761Y002593D02*
X019068Y002900D01*
X019068Y002976D01*
X018992Y003053D01*
X018838Y003053D01*
X018761Y002976D01*
X019301Y003053D02*
X019531Y003053D01*
X019608Y002976D01*
X019608Y002823D01*
X019531Y002746D01*
X019301Y002746D01*
X019301Y002593D02*
X019301Y003053D01*
X019761Y002976D02*
X019838Y003053D01*
X019992Y003053D01*
X020068Y002976D01*
X020068Y002900D01*
X019992Y002823D01*
X020068Y002746D01*
X020068Y002670D01*
X019992Y002593D01*
X019838Y002593D01*
X019761Y002670D01*
X019608Y002593D02*
X019454Y002746D01*
X019068Y002593D02*
X018761Y002593D01*
X017612Y002653D02*
X017305Y002653D01*
X017305Y002193D01*
X017305Y002423D02*
X017459Y002423D01*
X017152Y002653D02*
X016845Y002653D01*
X016845Y002423D02*
X016998Y002423D01*
X016691Y002193D02*
X016538Y002346D01*
X017154Y002802D02*
X017508Y002802D01*
X017518Y003294D02*
X017154Y003294D01*
X017154Y003427D02*
X017508Y003427D01*
X017518Y003919D02*
X017154Y003919D01*
X017180Y004193D02*
X017487Y004193D01*
X017641Y004193D02*
X017871Y004193D01*
X017948Y004270D01*
X017948Y004576D01*
X017871Y004653D01*
X017641Y004653D01*
X017641Y004193D01*
X017334Y004423D02*
X017180Y004423D01*
X017027Y004423D02*
X016950Y004346D01*
X016720Y004346D01*
X016873Y004346D02*
X017027Y004193D01*
X017180Y004193D02*
X017180Y004653D01*
X017487Y004653D01*
X017027Y004576D02*
X017027Y004423D01*
X017027Y004576D02*
X016950Y004653D01*
X016720Y004653D01*
X016720Y004193D01*
X020051Y004343D02*
X020051Y004803D01*
X020281Y004803D01*
X020358Y004726D01*
X020358Y004573D01*
X020281Y004496D01*
X020051Y004496D01*
X020204Y004496D02*
X020358Y004343D01*
X020511Y004420D02*
X020588Y004343D01*
X020742Y004343D01*
X020818Y004420D01*
X020818Y004573D01*
X020742Y004650D01*
X020665Y004650D01*
X020511Y004573D01*
X020511Y004803D01*
X020818Y004803D01*
X021496Y004513D02*
X021496Y004207D01*
X021650Y004053D01*
X021803Y004207D01*
X021803Y004513D01*
X021957Y004513D02*
X022264Y004513D01*
X022110Y004513D02*
X022110Y004053D01*
X022417Y004053D02*
X022724Y004053D01*
X022571Y004053D02*
X022571Y004513D01*
X022417Y004360D01*
X023926Y004473D02*
X023926Y004113D01*
X024106Y004113D01*
X024166Y004173D01*
X024166Y004413D01*
X024106Y004473D01*
X023926Y004473D01*
X024294Y004353D02*
X024414Y004473D01*
X024534Y004353D01*
X024534Y004113D01*
X024663Y004113D02*
X024903Y004353D01*
X024903Y004413D01*
X024843Y004473D01*
X024723Y004473D01*
X024663Y004413D01*
X024534Y004293D02*
X024294Y004293D01*
X024294Y004353D02*
X024294Y004113D01*
X024663Y004113D02*
X024903Y004113D01*
X026571Y004023D02*
X026571Y004313D01*
X027091Y004323D02*
X027091Y004023D01*
X027351Y004270D02*
X027428Y004193D01*
X027581Y004193D01*
X027658Y004270D01*
X027811Y004193D02*
X028118Y004500D01*
X028118Y004576D01*
X028042Y004653D01*
X027888Y004653D01*
X027811Y004576D01*
X027658Y004576D02*
X027581Y004653D01*
X027428Y004653D01*
X027351Y004576D01*
X027351Y004270D01*
X027811Y004193D02*
X028118Y004193D01*
X028206Y003210D02*
X028206Y002903D01*
X028052Y003057D02*
X028359Y003057D01*
X028359Y002750D02*
X028436Y002673D01*
X028436Y002443D01*
X027976Y002443D01*
X027976Y002673D01*
X028052Y002750D01*
X028129Y002750D01*
X028206Y002673D01*
X028206Y002443D01*
X028206Y002673D02*
X028283Y002750D01*
X028359Y002750D01*
X025568Y002732D02*
X025492Y002655D01*
X025338Y002655D01*
X025261Y002732D01*
X025261Y002886D01*
X025492Y002886D01*
X025568Y002809D01*
X025568Y002732D01*
X025415Y003039D02*
X025261Y002886D01*
X025108Y002886D02*
X025031Y002809D01*
X024801Y002809D01*
X024954Y002809D02*
X025108Y002655D01*
X024801Y002655D02*
X024801Y003116D01*
X025031Y003116D01*
X025108Y003039D01*
X025108Y002886D01*
X025415Y003039D02*
X025568Y003116D01*
X019992Y002823D02*
X019915Y002823D01*
X005436Y002903D02*
X004976Y002903D01*
X005436Y003210D01*
X004976Y003210D01*
X004976Y003364D02*
X004976Y003594D01*
X005052Y003671D01*
X005359Y003671D01*
X005436Y003594D01*
X005436Y003364D01*
X004976Y003364D01*
X005052Y002750D02*
X004976Y002673D01*
X004976Y002520D01*
X005052Y002443D01*
X005359Y002443D01*
X005436Y002520D01*
X005436Y002673D01*
X005359Y002750D01*
X005206Y002750D01*
X005206Y002596D01*
D15*
X009956Y003386D02*
X009956Y003709D01*
X010456Y003709D02*
X010456Y003386D01*
X012545Y003423D02*
X012867Y003423D01*
X012867Y003923D02*
X012545Y003923D01*
X018456Y003959D02*
X018456Y003636D01*
X018956Y003636D02*
X018956Y003959D01*
X019331Y003959D02*
X019331Y003636D01*
X019831Y003636D02*
X019831Y003959D01*
X020206Y003834D02*
X020206Y003511D01*
X020706Y003511D02*
X020706Y003834D01*
X025148Y003613D02*
X025763Y003613D01*
X025763Y004733D01*
X025148Y004733D01*
X025148Y003613D01*
X026295Y003235D02*
X026617Y003235D01*
X026617Y002735D02*
X026295Y002735D01*
D16*
X020455Y003381D03*
X019580Y003506D03*
X018705Y003506D03*
X018705Y004086D03*
X019580Y004086D03*
X020455Y003961D03*
X010205Y003836D03*
X010205Y003256D03*
D17*
X021360Y002747D02*
X023052Y002747D01*
X023052Y003849D01*
X021360Y003849D01*
X021360Y002747D01*
D18*
X022846Y003042D03*
D19*
X023269Y003170D03*
X023269Y002914D03*
X023269Y003426D03*
X023269Y003682D03*
X021143Y003682D03*
X021143Y003426D03*
X021143Y003170D03*
X021143Y002914D03*
D20*
X025259Y004626D03*
D21*
X025023Y004547D03*
X025023Y004173D03*
X025889Y004173D03*
X025889Y004547D03*
X025889Y003799D03*
X025023Y003799D03*
D22*
X026831Y003885D03*
X026831Y004455D03*
X011331Y003835D03*
X011331Y003265D03*
D23*
X012414Y003673D03*
X012994Y003673D03*
X026164Y002986D03*
X026744Y002986D03*
D24*
X017272Y002812D03*
X017272Y003284D03*
X017272Y003437D03*
X017272Y003909D03*
D25*
X017272Y003673D03*
X017272Y003048D03*
D26*
X017036Y003048D03*
X017626Y003048D03*
X017626Y003673D03*
X017036Y003673D03*
D27*
X009556Y004493D02*
X009134Y004493D01*
X008740Y004493D02*
X008318Y004493D01*
X007925Y004493D02*
X007503Y004493D01*
X007109Y004493D02*
X006687Y004493D01*
X006294Y004493D02*
X005872Y004493D01*
X005478Y004493D02*
X005056Y004493D01*
D28*
X006256Y004323D02*
X006556Y004323D01*
X006556Y004823D01*
X009356Y004823D01*
X009356Y004323D01*
X009656Y004323D01*
X009656Y003523D01*
X009356Y003523D01*
X009356Y002823D01*
X006556Y002823D01*
X006556Y003523D01*
X006256Y003523D01*
X006256Y004323D01*
D29*
X005950Y004346D02*
X005950Y004285D01*
X005888Y004223D01*
X005703Y004223D01*
X005581Y004100D02*
X005519Y004038D01*
X005396Y004038D01*
X005334Y004100D01*
X005334Y004346D01*
X005396Y004408D01*
X005519Y004408D01*
X005581Y004346D01*
X005703Y004408D02*
X005888Y004408D01*
X005950Y004346D01*
X005703Y004408D02*
X005703Y004038D01*
X005888Y004038D01*
X005950Y004100D01*
X005950Y004161D01*
X005888Y004223D01*
X005213Y004223D02*
X005213Y004346D01*
X005151Y004408D01*
X004966Y004408D01*
X004966Y004038D01*
X004966Y004161D02*
X005151Y004161D01*
X005213Y004223D01*
D30*
X009256Y003923D02*
X011331Y003922D01*
M02*
