G75*
G70*
%OFA0B0*%
%FSLAX24Y24*%
%IPPOS*%
%LPD*%
%AMOC8*
5,1,8,0,0,1.08239X$1,22.5*
%
%ADD10R,0.0592X0.0356*%
%ADD11R,0.0671X0.0592*%
%ADD12R,0.0375X0.0198*%
%ADD13R,0.0297X0.0237*%
%ADD14R,0.0297X0.0297*%
%ADD15R,0.0592X0.0671*%
%ADD16R,0.0552X0.0552*%
%ADD17C,0.0138*%
%ADD18C,0.0384*%
%ADD19C,0.0024*%
%ADD20C,0.0068*%
%ADD21C,0.0356*%
%ADD22R,0.1261X0.2442*%
%ADD23C,0.0867*%
D10*
X013873Y002673D03*
X013873Y003173D03*
X013873Y003673D03*
X013873Y004173D03*
X016039Y004173D03*
X016039Y003673D03*
X016039Y003173D03*
X016039Y002673D03*
D11*
X018706Y003463D03*
X019581Y003463D03*
X020456Y003338D03*
X020456Y004007D03*
X019581Y004132D03*
X018706Y004132D03*
X011331Y003922D03*
X010206Y003882D03*
X010206Y003213D03*
X011331Y003174D03*
X026831Y003799D03*
X026831Y004547D03*
D12*
X023358Y003682D03*
X023358Y003426D03*
X023358Y003170D03*
X023358Y002914D03*
X021054Y002914D03*
X021054Y003170D03*
X021054Y003426D03*
X021054Y003682D03*
D13*
X025003Y003799D03*
X025003Y004173D03*
X025003Y004547D03*
D14*
X025909Y004547D03*
X025909Y004173D03*
X025909Y003799D03*
D15*
X026121Y002985D03*
X026791Y002985D03*
X013041Y003673D03*
X012371Y003673D03*
D16*
X016918Y003673D03*
X017744Y003673D03*
X017744Y003048D03*
X016918Y003048D03*
D17*
X009552Y004199D02*
X008960Y004199D01*
X009552Y004199D02*
X009552Y003647D01*
X008960Y003647D01*
X008960Y004199D01*
X008960Y003784D02*
X009552Y003784D01*
X009552Y003921D02*
X008960Y003921D01*
X008960Y004058D02*
X009552Y004058D01*
X009552Y004195D02*
X008960Y004195D01*
X006952Y004199D02*
X006360Y004199D01*
X006952Y004199D02*
X006952Y003647D01*
X006360Y003647D01*
X006360Y004199D01*
X006360Y003784D02*
X006952Y003784D01*
X006952Y003921D02*
X006360Y003921D01*
X006360Y004058D02*
X006952Y004058D01*
X006952Y004195D02*
X006360Y004195D01*
D18*
X006828Y002911D02*
X007124Y002911D01*
X007124Y002815D01*
X006828Y002815D01*
X006828Y002911D01*
X008788Y002911D02*
X009084Y002911D01*
X009084Y002815D01*
X008788Y002815D01*
X008788Y002911D01*
D19*
X008584Y003156D02*
X008368Y003156D01*
X008584Y003156D02*
X008584Y002570D01*
X008368Y002570D01*
X008368Y003156D01*
X008368Y002593D02*
X008584Y002593D01*
X008584Y002616D02*
X008368Y002616D01*
X008368Y002639D02*
X008584Y002639D01*
X008584Y002662D02*
X008368Y002662D01*
X008368Y002685D02*
X008584Y002685D01*
X008584Y002708D02*
X008368Y002708D01*
X008368Y002731D02*
X008584Y002731D01*
X008584Y002754D02*
X008368Y002754D01*
X008368Y002777D02*
X008584Y002777D01*
X008584Y002800D02*
X008368Y002800D01*
X008368Y002823D02*
X008584Y002823D01*
X008584Y002846D02*
X008368Y002846D01*
X008368Y002869D02*
X008584Y002869D01*
X008584Y002892D02*
X008368Y002892D01*
X008368Y002915D02*
X008584Y002915D01*
X008584Y002938D02*
X008368Y002938D01*
X008368Y002961D02*
X008584Y002961D01*
X008584Y002984D02*
X008368Y002984D01*
X008368Y003007D02*
X008584Y003007D01*
X008584Y003030D02*
X008368Y003030D01*
X008368Y003053D02*
X008584Y003053D01*
X008584Y003076D02*
X008368Y003076D01*
X008368Y003099D02*
X008584Y003099D01*
X008584Y003122D02*
X008368Y003122D01*
X008368Y003145D02*
X008584Y003145D01*
X008324Y003156D02*
X008108Y003156D01*
X008324Y003156D02*
X008324Y002570D01*
X008108Y002570D01*
X008108Y003156D01*
X008108Y002593D02*
X008324Y002593D01*
X008324Y002616D02*
X008108Y002616D01*
X008108Y002639D02*
X008324Y002639D01*
X008324Y002662D02*
X008108Y002662D01*
X008108Y002685D02*
X008324Y002685D01*
X008324Y002708D02*
X008108Y002708D01*
X008108Y002731D02*
X008324Y002731D01*
X008324Y002754D02*
X008108Y002754D01*
X008108Y002777D02*
X008324Y002777D01*
X008324Y002800D02*
X008108Y002800D01*
X008108Y002823D02*
X008324Y002823D01*
X008324Y002846D02*
X008108Y002846D01*
X008108Y002869D02*
X008324Y002869D01*
X008324Y002892D02*
X008108Y002892D01*
X008108Y002915D02*
X008324Y002915D01*
X008324Y002938D02*
X008108Y002938D01*
X008108Y002961D02*
X008324Y002961D01*
X008324Y002984D02*
X008108Y002984D01*
X008108Y003007D02*
X008324Y003007D01*
X008324Y003030D02*
X008108Y003030D01*
X008108Y003053D02*
X008324Y003053D01*
X008324Y003076D02*
X008108Y003076D01*
X008108Y003099D02*
X008324Y003099D01*
X008324Y003122D02*
X008108Y003122D01*
X008108Y003145D02*
X008324Y003145D01*
X008064Y003156D02*
X007848Y003156D01*
X008064Y003156D02*
X008064Y002570D01*
X007848Y002570D01*
X007848Y003156D01*
X007848Y002593D02*
X008064Y002593D01*
X008064Y002616D02*
X007848Y002616D01*
X007848Y002639D02*
X008064Y002639D01*
X008064Y002662D02*
X007848Y002662D01*
X007848Y002685D02*
X008064Y002685D01*
X008064Y002708D02*
X007848Y002708D01*
X007848Y002731D02*
X008064Y002731D01*
X008064Y002754D02*
X007848Y002754D01*
X007848Y002777D02*
X008064Y002777D01*
X008064Y002800D02*
X007848Y002800D01*
X007848Y002823D02*
X008064Y002823D01*
X008064Y002846D02*
X007848Y002846D01*
X007848Y002869D02*
X008064Y002869D01*
X008064Y002892D02*
X007848Y002892D01*
X007848Y002915D02*
X008064Y002915D01*
X008064Y002938D02*
X007848Y002938D01*
X007848Y002961D02*
X008064Y002961D01*
X008064Y002984D02*
X007848Y002984D01*
X007848Y003007D02*
X008064Y003007D01*
X008064Y003030D02*
X007848Y003030D01*
X007848Y003053D02*
X008064Y003053D01*
X008064Y003076D02*
X007848Y003076D01*
X007848Y003099D02*
X008064Y003099D01*
X008064Y003122D02*
X007848Y003122D01*
X007848Y003145D02*
X008064Y003145D01*
X007804Y003156D02*
X007588Y003156D01*
X007804Y003156D02*
X007804Y002570D01*
X007588Y002570D01*
X007588Y003156D01*
X007588Y002593D02*
X007804Y002593D01*
X007804Y002616D02*
X007588Y002616D01*
X007588Y002639D02*
X007804Y002639D01*
X007804Y002662D02*
X007588Y002662D01*
X007588Y002685D02*
X007804Y002685D01*
X007804Y002708D02*
X007588Y002708D01*
X007588Y002731D02*
X007804Y002731D01*
X007804Y002754D02*
X007588Y002754D01*
X007588Y002777D02*
X007804Y002777D01*
X007804Y002800D02*
X007588Y002800D01*
X007588Y002823D02*
X007804Y002823D01*
X007804Y002846D02*
X007588Y002846D01*
X007588Y002869D02*
X007804Y002869D01*
X007804Y002892D02*
X007588Y002892D01*
X007588Y002915D02*
X007804Y002915D01*
X007804Y002938D02*
X007588Y002938D01*
X007588Y002961D02*
X007804Y002961D01*
X007804Y002984D02*
X007588Y002984D01*
X007588Y003007D02*
X007804Y003007D01*
X007804Y003030D02*
X007588Y003030D01*
X007588Y003053D02*
X007804Y003053D01*
X007804Y003076D02*
X007588Y003076D01*
X007588Y003099D02*
X007804Y003099D01*
X007804Y003122D02*
X007588Y003122D01*
X007588Y003145D02*
X007804Y003145D01*
X007544Y003156D02*
X007328Y003156D01*
X007544Y003156D02*
X007544Y002570D01*
X007328Y002570D01*
X007328Y003156D01*
X007328Y002593D02*
X007544Y002593D01*
X007544Y002616D02*
X007328Y002616D01*
X007328Y002639D02*
X007544Y002639D01*
X007544Y002662D02*
X007328Y002662D01*
X007328Y002685D02*
X007544Y002685D01*
X007544Y002708D02*
X007328Y002708D01*
X007328Y002731D02*
X007544Y002731D01*
X007544Y002754D02*
X007328Y002754D01*
X007328Y002777D02*
X007544Y002777D01*
X007544Y002800D02*
X007328Y002800D01*
X007328Y002823D02*
X007544Y002823D01*
X007544Y002846D02*
X007328Y002846D01*
X007328Y002869D02*
X007544Y002869D01*
X007544Y002892D02*
X007328Y002892D01*
X007328Y002915D02*
X007544Y002915D01*
X007544Y002938D02*
X007328Y002938D01*
X007328Y002961D02*
X007544Y002961D01*
X007544Y002984D02*
X007328Y002984D01*
X007328Y003007D02*
X007544Y003007D01*
X007544Y003030D02*
X007328Y003030D01*
X007328Y003053D02*
X007544Y003053D01*
X007544Y003076D02*
X007328Y003076D01*
X007328Y003099D02*
X007544Y003099D01*
X007544Y003122D02*
X007328Y003122D01*
X007328Y003145D02*
X007544Y003145D01*
D20*
X007250Y004229D02*
X007862Y004229D01*
X007862Y003617D01*
X007250Y003617D01*
X007250Y004229D01*
X007250Y003684D02*
X007862Y003684D01*
X007862Y003751D02*
X007250Y003751D01*
X007250Y003818D02*
X007862Y003818D01*
X007862Y003885D02*
X007250Y003885D01*
X007250Y003952D02*
X007862Y003952D01*
X007862Y004019D02*
X007250Y004019D01*
X007250Y004086D02*
X007862Y004086D01*
X007862Y004153D02*
X007250Y004153D01*
X007250Y004220D02*
X007862Y004220D01*
X008050Y004229D02*
X008662Y004229D01*
X008662Y003617D01*
X008050Y003617D01*
X008050Y004229D01*
X008050Y003684D02*
X008662Y003684D01*
X008662Y003751D02*
X008050Y003751D01*
X008050Y003818D02*
X008662Y003818D01*
X008662Y003885D02*
X008050Y003885D01*
X008050Y003952D02*
X008662Y003952D01*
X008662Y004019D02*
X008050Y004019D01*
X008050Y004086D02*
X008662Y004086D01*
X008662Y004153D02*
X008050Y004153D01*
X008050Y004220D02*
X008662Y004220D01*
D21*
X006926Y002863D03*
X007026Y002863D03*
X008886Y002863D03*
X008986Y002863D03*
X009336Y003823D03*
X009336Y004023D03*
X006576Y004023D03*
X006576Y003823D03*
D22*
X005581Y003548D03*
X027956Y003548D03*
D23*
X024081Y003048D03*
M02*
