G75*
G70*
%OFA0B0*%
%FSLAX24Y24*%
%IPPOS*%
%LPD*%
%AMOC8*
5,1,8,0,0,1.08239X$1,22.5*
%
%ADD10R,0.0512X0.0276*%
%ADD11R,0.0945X0.1339*%
%ADD12R,0.0591X0.0512*%
%ADD13R,0.0295X0.0118*%
%ADD14R,0.0217X0.0157*%
%ADD15R,0.0217X0.0217*%
%ADD16R,0.0512X0.0591*%
%ADD17R,0.0472X0.0472*%
%ADD18C,0.0122*%
%ADD19C,0.0320*%
%ADD20C,0.0016*%
%ADD21C,0.0060*%
%ADD22R,0.1181X0.2362*%
%ADD23C,0.0160*%
%ADD24C,0.0240*%
%ADD25C,0.0400*%
%ADD26C,0.0120*%
%ADD27C,0.0787*%
D10*
X012248Y002548D03*
X012248Y003048D03*
X012248Y003548D03*
X012248Y004048D03*
X014414Y004048D03*
X014414Y003548D03*
X014414Y003048D03*
X014414Y002548D03*
D11*
X013331Y003298D03*
D12*
X009706Y003049D03*
X008581Y003088D03*
X008581Y003757D03*
X009706Y003797D03*
X017081Y004007D03*
X017956Y004007D03*
X018831Y003882D03*
X017956Y003338D03*
X017081Y003338D03*
X018831Y003213D03*
X025206Y003549D03*
X025206Y004297D03*
D13*
X021733Y003557D03*
X021733Y003301D03*
X021733Y003045D03*
X021733Y002789D03*
X019429Y002789D03*
X019429Y003045D03*
X019429Y003301D03*
X019429Y003557D03*
D14*
X023378Y003549D03*
X023378Y003923D03*
X023378Y004297D03*
D15*
X024284Y004297D03*
X024284Y003923D03*
X024284Y003549D03*
D16*
X024496Y002860D03*
X025166Y002860D03*
X011416Y003548D03*
X010746Y003548D03*
D17*
X015293Y003548D03*
X016119Y003548D03*
X016119Y002923D03*
X015293Y002923D03*
D18*
X007895Y004042D02*
X007367Y004042D01*
X007895Y004042D02*
X007895Y003554D01*
X007367Y003554D01*
X007367Y004042D01*
X007367Y003675D02*
X007895Y003675D01*
X007895Y003796D02*
X007367Y003796D01*
X007367Y003917D02*
X007895Y003917D01*
X007895Y004038D02*
X007367Y004038D01*
X005295Y004042D02*
X004767Y004042D01*
X005295Y004042D02*
X005295Y003554D01*
X004767Y003554D01*
X004767Y004042D01*
X004767Y003675D02*
X005295Y003675D01*
X005295Y003796D02*
X004767Y003796D01*
X004767Y003917D02*
X005295Y003917D01*
X005295Y004038D02*
X004767Y004038D01*
D19*
X005031Y003798D02*
X005931Y003798D01*
X006731Y003798D01*
X007311Y003798D01*
X007631Y003798D01*
X007311Y003798D02*
X007311Y002738D01*
X007171Y002778D02*
X007451Y002778D01*
X007451Y002698D01*
X007171Y002698D01*
X007171Y002778D01*
X005491Y002778D02*
X005211Y002778D01*
X005491Y002778D02*
X005491Y002698D01*
X005211Y002698D01*
X005211Y002778D01*
D20*
X005739Y002995D02*
X005883Y002995D01*
X005883Y002481D01*
X005739Y002481D01*
X005739Y002995D01*
X005739Y002496D02*
X005883Y002496D01*
X005883Y002511D02*
X005739Y002511D01*
X005739Y002526D02*
X005883Y002526D01*
X005883Y002541D02*
X005739Y002541D01*
X005739Y002556D02*
X005883Y002556D01*
X005883Y002571D02*
X005739Y002571D01*
X005739Y002586D02*
X005883Y002586D01*
X005883Y002601D02*
X005739Y002601D01*
X005739Y002616D02*
X005883Y002616D01*
X005883Y002631D02*
X005739Y002631D01*
X005739Y002646D02*
X005883Y002646D01*
X005883Y002661D02*
X005739Y002661D01*
X005739Y002676D02*
X005883Y002676D01*
X005883Y002691D02*
X005739Y002691D01*
X005739Y002706D02*
X005883Y002706D01*
X005883Y002721D02*
X005739Y002721D01*
X005739Y002736D02*
X005883Y002736D01*
X005883Y002751D02*
X005739Y002751D01*
X005739Y002766D02*
X005883Y002766D01*
X005883Y002781D02*
X005739Y002781D01*
X005739Y002796D02*
X005883Y002796D01*
X005883Y002811D02*
X005739Y002811D01*
X005739Y002826D02*
X005883Y002826D01*
X005883Y002841D02*
X005739Y002841D01*
X005739Y002856D02*
X005883Y002856D01*
X005883Y002871D02*
X005739Y002871D01*
X005739Y002886D02*
X005883Y002886D01*
X005883Y002901D02*
X005739Y002901D01*
X005739Y002916D02*
X005883Y002916D01*
X005883Y002931D02*
X005739Y002931D01*
X005739Y002946D02*
X005883Y002946D01*
X005883Y002961D02*
X005739Y002961D01*
X005739Y002976D02*
X005883Y002976D01*
X005883Y002991D02*
X005739Y002991D01*
X005999Y002995D02*
X006143Y002995D01*
X006143Y002481D01*
X005999Y002481D01*
X005999Y002995D01*
X005999Y002496D02*
X006143Y002496D01*
X006143Y002511D02*
X005999Y002511D01*
X005999Y002526D02*
X006143Y002526D01*
X006143Y002541D02*
X005999Y002541D01*
X005999Y002556D02*
X006143Y002556D01*
X006143Y002571D02*
X005999Y002571D01*
X005999Y002586D02*
X006143Y002586D01*
X006143Y002601D02*
X005999Y002601D01*
X005999Y002616D02*
X006143Y002616D01*
X006143Y002631D02*
X005999Y002631D01*
X005999Y002646D02*
X006143Y002646D01*
X006143Y002661D02*
X005999Y002661D01*
X005999Y002676D02*
X006143Y002676D01*
X006143Y002691D02*
X005999Y002691D01*
X005999Y002706D02*
X006143Y002706D01*
X006143Y002721D02*
X005999Y002721D01*
X005999Y002736D02*
X006143Y002736D01*
X006143Y002751D02*
X005999Y002751D01*
X005999Y002766D02*
X006143Y002766D01*
X006143Y002781D02*
X005999Y002781D01*
X005999Y002796D02*
X006143Y002796D01*
X006143Y002811D02*
X005999Y002811D01*
X005999Y002826D02*
X006143Y002826D01*
X006143Y002841D02*
X005999Y002841D01*
X005999Y002856D02*
X006143Y002856D01*
X006143Y002871D02*
X005999Y002871D01*
X005999Y002886D02*
X006143Y002886D01*
X006143Y002901D02*
X005999Y002901D01*
X005999Y002916D02*
X006143Y002916D01*
X006143Y002931D02*
X005999Y002931D01*
X005999Y002946D02*
X006143Y002946D01*
X006143Y002961D02*
X005999Y002961D01*
X005999Y002976D02*
X006143Y002976D01*
X006143Y002991D02*
X005999Y002991D01*
X006259Y002995D02*
X006403Y002995D01*
X006403Y002481D01*
X006259Y002481D01*
X006259Y002995D01*
X006259Y002496D02*
X006403Y002496D01*
X006403Y002511D02*
X006259Y002511D01*
X006259Y002526D02*
X006403Y002526D01*
X006403Y002541D02*
X006259Y002541D01*
X006259Y002556D02*
X006403Y002556D01*
X006403Y002571D02*
X006259Y002571D01*
X006259Y002586D02*
X006403Y002586D01*
X006403Y002601D02*
X006259Y002601D01*
X006259Y002616D02*
X006403Y002616D01*
X006403Y002631D02*
X006259Y002631D01*
X006259Y002646D02*
X006403Y002646D01*
X006403Y002661D02*
X006259Y002661D01*
X006259Y002676D02*
X006403Y002676D01*
X006403Y002691D02*
X006259Y002691D01*
X006259Y002706D02*
X006403Y002706D01*
X006403Y002721D02*
X006259Y002721D01*
X006259Y002736D02*
X006403Y002736D01*
X006403Y002751D02*
X006259Y002751D01*
X006259Y002766D02*
X006403Y002766D01*
X006403Y002781D02*
X006259Y002781D01*
X006259Y002796D02*
X006403Y002796D01*
X006403Y002811D02*
X006259Y002811D01*
X006259Y002826D02*
X006403Y002826D01*
X006403Y002841D02*
X006259Y002841D01*
X006259Y002856D02*
X006403Y002856D01*
X006403Y002871D02*
X006259Y002871D01*
X006259Y002886D02*
X006403Y002886D01*
X006403Y002901D02*
X006259Y002901D01*
X006259Y002916D02*
X006403Y002916D01*
X006403Y002931D02*
X006259Y002931D01*
X006259Y002946D02*
X006403Y002946D01*
X006403Y002961D02*
X006259Y002961D01*
X006259Y002976D02*
X006403Y002976D01*
X006403Y002991D02*
X006259Y002991D01*
X006519Y002995D02*
X006663Y002995D01*
X006663Y002481D01*
X006519Y002481D01*
X006519Y002995D01*
X006519Y002496D02*
X006663Y002496D01*
X006663Y002511D02*
X006519Y002511D01*
X006519Y002526D02*
X006663Y002526D01*
X006663Y002541D02*
X006519Y002541D01*
X006519Y002556D02*
X006663Y002556D01*
X006663Y002571D02*
X006519Y002571D01*
X006519Y002586D02*
X006663Y002586D01*
X006663Y002601D02*
X006519Y002601D01*
X006519Y002616D02*
X006663Y002616D01*
X006663Y002631D02*
X006519Y002631D01*
X006519Y002646D02*
X006663Y002646D01*
X006663Y002661D02*
X006519Y002661D01*
X006519Y002676D02*
X006663Y002676D01*
X006663Y002691D02*
X006519Y002691D01*
X006519Y002706D02*
X006663Y002706D01*
X006663Y002721D02*
X006519Y002721D01*
X006519Y002736D02*
X006663Y002736D01*
X006663Y002751D02*
X006519Y002751D01*
X006519Y002766D02*
X006663Y002766D01*
X006663Y002781D02*
X006519Y002781D01*
X006519Y002796D02*
X006663Y002796D01*
X006663Y002811D02*
X006519Y002811D01*
X006519Y002826D02*
X006663Y002826D01*
X006663Y002841D02*
X006519Y002841D01*
X006519Y002856D02*
X006663Y002856D01*
X006663Y002871D02*
X006519Y002871D01*
X006519Y002886D02*
X006663Y002886D01*
X006663Y002901D02*
X006519Y002901D01*
X006519Y002916D02*
X006663Y002916D01*
X006663Y002931D02*
X006519Y002931D01*
X006519Y002946D02*
X006663Y002946D01*
X006663Y002961D02*
X006519Y002961D01*
X006519Y002976D02*
X006663Y002976D01*
X006663Y002991D02*
X006519Y002991D01*
X006779Y002995D02*
X006923Y002995D01*
X006923Y002481D01*
X006779Y002481D01*
X006779Y002995D01*
X006779Y002496D02*
X006923Y002496D01*
X006923Y002511D02*
X006779Y002511D01*
X006779Y002526D02*
X006923Y002526D01*
X006923Y002541D02*
X006779Y002541D01*
X006779Y002556D02*
X006923Y002556D01*
X006923Y002571D02*
X006779Y002571D01*
X006779Y002586D02*
X006923Y002586D01*
X006923Y002601D02*
X006779Y002601D01*
X006779Y002616D02*
X006923Y002616D01*
X006923Y002631D02*
X006779Y002631D01*
X006779Y002646D02*
X006923Y002646D01*
X006923Y002661D02*
X006779Y002661D01*
X006779Y002676D02*
X006923Y002676D01*
X006923Y002691D02*
X006779Y002691D01*
X006779Y002706D02*
X006923Y002706D01*
X006923Y002721D02*
X006779Y002721D01*
X006779Y002736D02*
X006923Y002736D01*
X006923Y002751D02*
X006779Y002751D01*
X006779Y002766D02*
X006923Y002766D01*
X006923Y002781D02*
X006779Y002781D01*
X006779Y002796D02*
X006923Y002796D01*
X006923Y002811D02*
X006779Y002811D01*
X006779Y002826D02*
X006923Y002826D01*
X006923Y002841D02*
X006779Y002841D01*
X006779Y002856D02*
X006923Y002856D01*
X006923Y002871D02*
X006779Y002871D01*
X006779Y002886D02*
X006923Y002886D01*
X006923Y002901D02*
X006779Y002901D01*
X006779Y002916D02*
X006923Y002916D01*
X006923Y002931D02*
X006779Y002931D01*
X006779Y002946D02*
X006923Y002946D01*
X006923Y002961D02*
X006779Y002961D01*
X006779Y002976D02*
X006923Y002976D01*
X006923Y002991D02*
X006779Y002991D01*
D21*
X007001Y004068D02*
X006461Y004068D01*
X007001Y004068D02*
X007001Y003528D01*
X006461Y003528D01*
X006461Y004068D01*
X006461Y003587D02*
X007001Y003587D01*
X007001Y003646D02*
X006461Y003646D01*
X006461Y003705D02*
X007001Y003705D01*
X007001Y003764D02*
X006461Y003764D01*
X006461Y003823D02*
X007001Y003823D01*
X007001Y003882D02*
X006461Y003882D01*
X006461Y003941D02*
X007001Y003941D01*
X007001Y004000D02*
X006461Y004000D01*
X006461Y004059D02*
X007001Y004059D01*
X006201Y004068D02*
X005661Y004068D01*
X006201Y004068D02*
X006201Y003528D01*
X005661Y003528D01*
X005661Y004068D01*
X005661Y003587D02*
X006201Y003587D01*
X006201Y003646D02*
X005661Y003646D01*
X005661Y003705D02*
X006201Y003705D01*
X006201Y003764D02*
X005661Y003764D01*
X005661Y003823D02*
X006201Y003823D01*
X006201Y003882D02*
X005661Y003882D01*
X005661Y003941D02*
X006201Y003941D01*
X006201Y004000D02*
X005661Y004000D01*
X005661Y004059D02*
X006201Y004059D01*
D22*
X003956Y003423D03*
X026331Y003423D03*
D23*
X006956Y002298D02*
X006851Y002403D01*
X006851Y002738D01*
X005811Y002738D02*
X005351Y002738D01*
X005811Y002738D02*
X005811Y003798D01*
X005931Y003798D01*
X018831Y003923D02*
X019331Y004423D01*
X022831Y004423D01*
X023206Y003923D01*
X023378Y003923D01*
X022697Y003557D02*
X023081Y003173D01*
X023581Y003173D01*
X023956Y002798D02*
X022456Y002798D01*
X022456Y002923D01*
X022697Y003557D02*
X021733Y003557D01*
X024284Y003923D02*
X024581Y003923D01*
X024706Y003673D01*
X024706Y003423D01*
X024496Y003088D01*
X024496Y002860D01*
X025206Y003549D02*
X025205Y003673D01*
X024706Y003673D01*
X024284Y004297D02*
X025206Y004297D01*
D24*
X026331Y003423D02*
X025706Y002298D01*
X025206Y002298D01*
X025166Y002338D01*
X025166Y002860D01*
X025206Y002298D02*
X014664Y002298D01*
X014414Y002548D01*
X015168Y003048D02*
X015293Y002923D01*
X015168Y003048D02*
X014414Y003048D01*
X014414Y003548D02*
X015293Y003548D01*
X016119Y003548D02*
X016456Y003548D01*
X016666Y003338D01*
X017081Y003338D01*
X017706Y002798D02*
X017956Y003048D01*
X017956Y003338D01*
X016581Y002798D02*
X016456Y002923D01*
X016119Y002923D01*
X016581Y002798D02*
X017706Y002798D01*
X017956Y004007D02*
X017081Y004007D01*
X016916Y004048D01*
X014414Y004048D01*
X013331Y004048D01*
X013331Y002548D01*
X012248Y002548D01*
X012081Y002548D01*
X011956Y002423D01*
X010207Y002423D01*
X009706Y003049D01*
X009705Y003048D01*
X009331Y003048D01*
X008956Y003798D01*
X008746Y003798D01*
X008581Y003757D01*
X009706Y003797D02*
X010620Y003797D01*
X010746Y003548D01*
X010746Y004173D01*
X011831Y004173D01*
X011956Y004048D01*
X012248Y004048D01*
X012248Y003548D02*
X011416Y003548D01*
X010746Y003548D02*
X010746Y002923D01*
X011706Y002923D01*
X011831Y003048D01*
X012248Y003048D01*
X012331Y003048D01*
X008581Y003088D02*
X008581Y002673D01*
X008206Y002298D01*
X006956Y002298D01*
D25*
X003956Y003423D02*
X003956Y003798D01*
X005031Y003798D01*
D26*
X018831Y003882D02*
X018831Y003923D01*
X019429Y003771D02*
X019706Y004048D01*
X022706Y004048D01*
X023205Y003549D01*
X023378Y003549D01*
X023581Y003173D02*
X023706Y003173D01*
X023706Y004297D01*
X023378Y004297D01*
X023956Y004297D02*
X024284Y004297D01*
X023956Y004297D02*
X023956Y002798D01*
X022456Y002923D02*
X022203Y003045D01*
X021733Y003045D01*
X021733Y003301D02*
X022084Y003301D01*
X022456Y002923D01*
X021733Y002789D02*
X019429Y002789D01*
X019429Y003045D02*
X018831Y003045D01*
X018831Y003213D01*
X018831Y003301D01*
X019429Y003301D01*
X019429Y003557D02*
X019429Y003771D01*
D27*
X022456Y002923D03*
M02*
