G75*
G70*
%OFA0B0*%
%FSLAX24Y24*%
%IPPOS*%
%LPD*%
%AMOC8*
5,1,8,0,0,1.08239X$1,22.5*
%
%ADD10C,0.0051*%
%ADD11C,0.0110*%
%ADD12C,0.0050*%
%ADD13C,0.0176*%
%ADD14C,0.0040*%
%ADD15C,0.0060*%
%ADD16R,0.0551X0.0256*%
%ADD17C,0.0080*%
%ADD18C,0.0256*%
%ADD19R,0.0394X0.0098*%
%ADD20C,0.0079*%
%ADD21R,0.0236X0.0197*%
%ADD22R,0.0256X0.0551*%
%ADD23R,0.0571X0.0295*%
%ADD24R,0.0118X0.0059*%
%ADD25R,0.0118X0.0118*%
%ADD26R,0.0236X0.0531*%
%ADD27C,0.0020*%
%ADD28C,0.0100*%
%ADD29C,0.0030*%
D10*
X002331Y000126D02*
X002331Y002173D01*
X002433Y001149D01*
X002457Y001149D02*
X002331Y002173D01*
X002229Y001149D01*
X002205Y001149D02*
X002457Y001149D01*
X002382Y001149D02*
X002331Y002173D01*
X002280Y001149D01*
X002205Y001149D02*
X002331Y002173D01*
X002581Y002173D02*
X001544Y002173D01*
X001544Y004673D02*
X002581Y004673D01*
X002331Y004673D02*
X002433Y005696D01*
X002457Y005696D02*
X002331Y004673D01*
X002229Y005696D01*
X002205Y005696D02*
X002457Y005696D01*
X002382Y005696D02*
X002331Y004673D01*
X002280Y005696D01*
X002205Y005696D02*
X002331Y004673D01*
X002331Y009534D01*
X003206Y006335D02*
X003206Y005173D01*
X003206Y005548D02*
X004230Y005445D01*
X004230Y005422D02*
X003206Y005548D01*
X004230Y005650D01*
X004230Y005674D02*
X004230Y005422D01*
X004230Y005497D02*
X003206Y005548D01*
X004230Y005599D01*
X004230Y005674D02*
X003206Y005548D01*
X027206Y005548D01*
X026182Y005445D01*
X026182Y005422D02*
X027206Y005548D01*
X026182Y005650D01*
X026182Y005674D02*
X026182Y005422D01*
X026182Y005497D02*
X027206Y005548D01*
X026182Y005599D01*
X026182Y005674D02*
X027206Y005548D01*
X027206Y005173D02*
X027206Y006335D01*
D11*
X018081Y006208D02*
X018081Y006420D01*
X017869Y006631D01*
X017235Y006631D01*
X017235Y006208D01*
X017446Y005997D01*
X017869Y005997D01*
X018081Y006208D01*
X017658Y007054D02*
X017235Y006631D01*
X016812Y006631D02*
X016178Y006631D01*
X015966Y006843D01*
X015966Y007054D01*
X016178Y007266D01*
X016601Y007266D01*
X016812Y007054D01*
X016812Y006208D01*
X016601Y005997D01*
X016178Y005997D01*
X015966Y006208D01*
X015543Y006208D02*
X015543Y005997D01*
X015332Y005997D01*
X015332Y006208D01*
X015543Y006208D01*
X014909Y006208D02*
X014697Y005997D01*
X014274Y005997D01*
X014063Y006208D01*
X014909Y007054D01*
X014909Y006208D01*
X014063Y006208D02*
X014063Y007054D01*
X014274Y007266D01*
X014697Y007266D01*
X014909Y007054D01*
X013640Y007266D02*
X013217Y007054D01*
X012794Y006631D01*
X013429Y006631D01*
X013640Y006420D01*
X013640Y006208D01*
X013429Y005997D01*
X013006Y005997D01*
X012794Y006208D01*
X012794Y006631D01*
X017658Y007054D02*
X018081Y007266D01*
X001882Y007232D02*
X001882Y007020D01*
X001671Y007020D01*
X001671Y007232D01*
X001882Y007232D01*
X001671Y007655D02*
X001882Y007866D01*
X001882Y008289D01*
X001671Y008501D01*
X001459Y008501D01*
X001248Y008289D01*
X001248Y008078D01*
X001248Y008289D02*
X001036Y008501D01*
X000825Y008501D01*
X000613Y008289D01*
X000613Y007866D01*
X000825Y007655D01*
X000613Y006597D02*
X000825Y006174D01*
X001248Y005751D01*
X001248Y006386D01*
X001459Y006597D01*
X001671Y006597D01*
X001882Y006386D01*
X001882Y005963D01*
X001671Y005751D01*
X001248Y005751D01*
X001248Y008923D02*
X000613Y008923D01*
X000613Y009769D01*
X001036Y009558D02*
X001248Y009769D01*
X001671Y009769D01*
X001882Y009558D01*
X001882Y009135D01*
X001671Y008923D01*
X001248Y008923D02*
X001036Y009346D01*
X001036Y009558D01*
D12*
X012504Y004164D02*
X014158Y004164D01*
X014158Y002432D01*
X012504Y002432D01*
X012504Y004164D01*
D13*
X012701Y003967D03*
D14*
X012726Y004193D02*
X012956Y004193D01*
X013033Y004270D01*
X013033Y004576D01*
X012956Y004653D01*
X012726Y004653D01*
X012726Y004193D01*
X013186Y004193D02*
X013186Y004500D01*
X013340Y004653D01*
X013493Y004500D01*
X013493Y004193D01*
X013647Y004193D02*
X013954Y004193D01*
X013800Y004193D02*
X013800Y004653D01*
X013647Y004500D01*
X013493Y004423D02*
X013186Y004423D01*
X011568Y004198D02*
X011261Y004198D01*
X011492Y004428D01*
X011492Y003968D01*
X011108Y003968D02*
X010954Y004121D01*
X011031Y004121D02*
X010801Y004121D01*
X010801Y003968D02*
X010801Y004428D01*
X011031Y004428D01*
X011108Y004351D01*
X011108Y004198D01*
X011031Y004121D01*
X009966Y003573D02*
X009966Y003283D01*
X009446Y003273D02*
X009446Y003573D01*
X009428Y002653D02*
X009351Y002576D01*
X009351Y002270D01*
X009428Y002193D01*
X009581Y002193D01*
X009658Y002270D01*
X009811Y002193D02*
X010118Y002193D01*
X009965Y002193D02*
X009965Y002653D01*
X009811Y002500D01*
X009658Y002576D02*
X009581Y002653D01*
X009428Y002653D01*
X008790Y002678D02*
X008790Y002218D01*
X008943Y002218D02*
X008636Y002218D01*
X008483Y002218D02*
X008329Y002371D01*
X008406Y002371D02*
X008176Y002371D01*
X008406Y002371D02*
X008483Y002448D01*
X008483Y002601D01*
X008406Y002678D01*
X008176Y002678D01*
X008176Y002218D01*
X008636Y002525D02*
X008790Y002678D01*
X003811Y002778D02*
X003351Y002778D01*
X003811Y003085D01*
X003351Y003085D01*
X003351Y003239D02*
X003351Y003469D01*
X003427Y003546D01*
X003734Y003546D01*
X003811Y003469D01*
X003811Y003239D01*
X003351Y003239D01*
X003427Y002625D02*
X003351Y002548D01*
X003351Y002395D01*
X003427Y002318D01*
X003734Y002318D01*
X003811Y002395D01*
X003811Y002548D01*
X003734Y002625D01*
X003581Y002625D01*
X003581Y002471D01*
X014299Y002576D02*
X014299Y002270D01*
X014376Y002193D01*
X014529Y002193D01*
X014606Y002270D01*
X014606Y002423D01*
X014452Y002423D01*
X014299Y002576D02*
X014376Y002653D01*
X014529Y002653D01*
X014606Y002576D01*
X014759Y002653D02*
X014990Y002653D01*
X015066Y002576D01*
X015066Y002423D01*
X014990Y002346D01*
X014759Y002346D01*
X014913Y002346D02*
X015066Y002193D01*
X015220Y002193D02*
X015527Y002193D01*
X015680Y002193D02*
X015987Y002193D01*
X016141Y002193D02*
X016141Y002653D01*
X016448Y002193D01*
X016448Y002653D01*
X016551Y002621D02*
X016781Y002621D01*
X016858Y002698D01*
X016858Y002851D01*
X016781Y002928D01*
X016551Y002928D01*
X016551Y002468D01*
X016704Y002621D02*
X016858Y002468D01*
X017011Y002468D02*
X017318Y002775D01*
X017318Y002851D01*
X017242Y002928D01*
X017088Y002928D01*
X017011Y002851D01*
X017551Y002678D02*
X017781Y002678D01*
X017858Y002601D01*
X017858Y002448D01*
X017781Y002371D01*
X017551Y002371D01*
X017704Y002371D02*
X017858Y002218D01*
X018011Y002295D02*
X018088Y002218D01*
X018242Y002218D01*
X018318Y002295D01*
X018318Y002371D01*
X018242Y002448D01*
X018165Y002448D01*
X018242Y002448D02*
X018318Y002525D01*
X018318Y002601D01*
X018242Y002678D01*
X018088Y002678D01*
X018011Y002601D01*
X017551Y002678D02*
X017551Y002218D01*
X017318Y002468D02*
X017011Y002468D01*
X015987Y002653D02*
X015680Y002653D01*
X015680Y002193D01*
X015220Y002193D02*
X015220Y002653D01*
X015527Y002653D01*
X015529Y002677D02*
X015883Y002677D01*
X015834Y002423D02*
X015680Y002423D01*
X015373Y002423D02*
X015220Y002423D01*
X014759Y002193D02*
X014759Y002653D01*
X015529Y003169D02*
X015893Y003169D01*
X015883Y003302D02*
X015529Y003302D01*
X015529Y003794D02*
X015893Y003794D01*
X015862Y004068D02*
X015555Y004068D01*
X015555Y004528D01*
X015862Y004528D01*
X016016Y004528D02*
X016246Y004528D01*
X016323Y004451D01*
X016323Y004145D01*
X016246Y004068D01*
X016016Y004068D01*
X016016Y004528D01*
X015709Y004298D02*
X015555Y004298D01*
X015402Y004298D02*
X015325Y004221D01*
X015095Y004221D01*
X015095Y004068D02*
X015095Y004528D01*
X015325Y004528D01*
X015402Y004451D01*
X015402Y004298D01*
X015248Y004221D02*
X015402Y004068D01*
X018446Y003073D02*
X018446Y002773D01*
X018966Y002783D02*
X018966Y003073D01*
X019132Y002653D02*
X019055Y002576D01*
X019055Y002270D01*
X019132Y002193D01*
X019285Y002193D01*
X019362Y002270D01*
X019516Y002270D02*
X019592Y002193D01*
X019746Y002193D01*
X019823Y002270D01*
X019823Y002346D01*
X019746Y002423D01*
X019669Y002423D01*
X019746Y002423D02*
X019823Y002500D01*
X019823Y002576D01*
X019746Y002653D01*
X019592Y002653D01*
X019516Y002576D01*
X019362Y002576D02*
X019285Y002653D01*
X019132Y002653D01*
X020746Y004082D02*
X020900Y003928D01*
X021053Y004082D01*
X021053Y004388D01*
X021207Y004388D02*
X021514Y004388D01*
X021360Y004388D02*
X021360Y003928D01*
X021667Y003928D02*
X021974Y003928D01*
X021821Y003928D02*
X021821Y004388D01*
X021667Y004235D01*
X022301Y004223D02*
X022481Y004223D01*
X022541Y004163D01*
X022541Y003923D01*
X022481Y003863D01*
X022301Y003863D01*
X022301Y004223D01*
X022669Y004103D02*
X022789Y004223D01*
X022909Y004103D01*
X022909Y003863D01*
X023038Y003863D02*
X023278Y004103D01*
X023278Y004163D01*
X023218Y004223D01*
X023098Y004223D01*
X023038Y004163D01*
X022909Y004043D02*
X022669Y004043D01*
X022669Y004103D02*
X022669Y003863D01*
X023038Y003863D02*
X023278Y003863D01*
X025196Y003773D02*
X025196Y004063D01*
X025716Y004073D02*
X025716Y003773D01*
X025976Y004020D02*
X026053Y003943D01*
X026206Y003943D01*
X026283Y004020D01*
X026436Y003943D02*
X026743Y004250D01*
X026743Y004326D01*
X026667Y004403D01*
X026513Y004403D01*
X026436Y004326D01*
X026283Y004326D02*
X026206Y004403D01*
X026053Y004403D01*
X025976Y004326D01*
X025976Y004020D01*
X026436Y003943D02*
X026743Y003943D01*
X026831Y003085D02*
X026831Y002778D01*
X026908Y002625D02*
X026984Y002625D01*
X027061Y002548D01*
X027061Y002318D01*
X026601Y002318D01*
X026601Y002548D01*
X026677Y002625D01*
X026754Y002625D01*
X026831Y002548D01*
X026831Y002318D01*
X026831Y002548D02*
X026908Y002625D01*
X026984Y002932D02*
X026677Y002932D01*
X024193Y002991D02*
X024040Y002914D01*
X023886Y002761D01*
X024117Y002761D01*
X024193Y002684D01*
X024193Y002607D01*
X024117Y002530D01*
X023963Y002530D01*
X023886Y002607D01*
X023886Y002761D01*
X023733Y002761D02*
X023656Y002684D01*
X023426Y002684D01*
X023579Y002684D02*
X023733Y002530D01*
X023426Y002530D02*
X023426Y002991D01*
X023656Y002991D01*
X023733Y002914D01*
X023733Y002761D01*
X020568Y004045D02*
X020492Y003968D01*
X020338Y003968D01*
X020261Y004045D01*
X020261Y004198D02*
X020415Y004275D01*
X020492Y004275D01*
X020568Y004198D01*
X020568Y004045D01*
X020746Y004082D02*
X020746Y004388D01*
X020568Y004428D02*
X020261Y004428D01*
X020261Y004198D01*
X020108Y004198D02*
X020031Y004121D01*
X019801Y004121D01*
X019801Y003968D02*
X019801Y004428D01*
X020031Y004428D01*
X020108Y004351D01*
X020108Y004198D01*
X019954Y004121D02*
X020108Y003968D01*
D15*
X019117Y003923D02*
X018795Y003923D01*
X018081Y003584D02*
X018081Y003261D01*
X017581Y003261D02*
X017581Y003584D01*
X017206Y003511D02*
X017206Y003834D01*
X016706Y003834D02*
X016706Y003511D01*
X018795Y004423D02*
X019117Y004423D01*
X023773Y004483D02*
X023773Y003363D01*
X024388Y003363D01*
X024388Y004483D01*
X023773Y004483D01*
X024920Y003110D02*
X025242Y003110D01*
X025242Y002610D02*
X024920Y002610D01*
X011242Y003298D02*
X010920Y003298D01*
X010920Y003798D02*
X011242Y003798D01*
X008831Y003584D02*
X008831Y003261D01*
X008331Y003261D02*
X008331Y003584D01*
D16*
X008580Y003711D03*
X008580Y003131D03*
X016955Y003381D03*
X017830Y003131D03*
X017830Y003711D03*
X016955Y003961D03*
D17*
X019985Y003724D02*
X019985Y002622D01*
X021677Y002622D01*
X021677Y003724D01*
X019985Y003724D01*
D18*
X021471Y002917D03*
D19*
X021894Y002789D03*
X021894Y003045D03*
X021894Y003301D03*
X021894Y003557D03*
X019768Y003557D03*
X019768Y003301D03*
X019768Y003045D03*
X019768Y002789D03*
D20*
X023884Y004376D03*
D21*
X023648Y004297D03*
X024514Y004297D03*
X024514Y003923D03*
X024514Y003549D03*
X023648Y003549D03*
X023648Y003923D03*
D22*
X024789Y002861D03*
X025369Y002861D03*
X019244Y004173D03*
X018664Y004173D03*
X011369Y003548D03*
X010789Y003548D03*
D23*
X009706Y003710D03*
X009706Y003140D03*
X018706Y003210D03*
X018706Y002640D03*
X025456Y003635D03*
X025456Y004205D03*
D24*
X015647Y003784D03*
X015647Y003312D03*
X015647Y003159D03*
X015647Y002687D03*
D25*
X015647Y002923D03*
X015647Y003548D03*
D26*
X015411Y003548D03*
X016001Y003548D03*
X016001Y002923D03*
X015411Y002923D03*
D27*
X007931Y004368D02*
X007509Y004368D01*
X007115Y004368D02*
X006693Y004368D01*
X006300Y004368D02*
X005878Y004368D01*
X005484Y004368D02*
X005062Y004368D01*
X004669Y004368D02*
X004247Y004368D01*
X003853Y004368D02*
X003431Y004368D01*
D28*
X004631Y004198D02*
X004931Y004198D01*
X004931Y004698D01*
X007731Y004698D01*
X007731Y004198D01*
X008031Y004198D01*
X008031Y003398D01*
X007731Y003398D01*
X007731Y002698D01*
X004931Y002698D01*
X004931Y003398D01*
X004631Y003398D01*
X004631Y004198D01*
D29*
X004325Y004221D02*
X004263Y004283D01*
X004078Y004283D01*
X004078Y003913D01*
X004263Y003913D01*
X004325Y003975D01*
X004325Y004036D01*
X004263Y004098D01*
X004078Y004098D01*
X003956Y004221D02*
X003894Y004283D01*
X003771Y004283D01*
X003709Y004221D01*
X003709Y003975D01*
X003771Y003913D01*
X003894Y003913D01*
X003956Y003975D01*
X004263Y004098D02*
X004325Y004160D01*
X004325Y004221D01*
X003588Y004221D02*
X003588Y004098D01*
X003526Y004036D01*
X003341Y004036D01*
X003341Y003913D02*
X003341Y004283D01*
X003526Y004283D01*
X003588Y004221D01*
M02*
